ffmpeg started on 2025-04-30 at 17:59:11
Report written to "D:\Convert\FFMetrics\reports\ssim_report-6.txt"
Log level: 32
Command line:
ffmpeg -hide_banner -nostdin -i "G:\\\xc0\xed\xe8\xec\xe5\\\xce\xed\xe3\xee\xe8\xed\xe3\xe8\\!_35_\xcb\xe5\xf2\xee_2024\\JamClub\\\xcc\xe5\xf7 \xe8 \xe6\xe5\xe7\xeb \xc2\xe8\xf1\xf2\xee\xf0\xe8\xe8\\JamClub_Tsue_to_Tsurugi_no_Wistoria_02_1080p_HEVC.mkv" -i "G:\\\xc0\xed\xe8\xec\xe5\\\xce\xed\xe3\xee\xe8\xed\xe3\xe8\\!_35_\xcb\xe5\xf2\xee_2024\\JamClub\\\xcc\xe5\xf7 \xe8 \xe6\xe5\xe7\xeb \xc2\xe8\xf1\xf2\xee\xf0\xe8\xe8\\JamClub_Tsue_to_Tsurugi_no_Wistoria_02_1080p.mp4" -lavfi "[0:v]settb=AVTB,setpts=PTS-STARTPTS,format=pix_fmts=yuv420p10,fps=24000/1001,scale=1920:1080:flags=bicubic[main];[1:v]settb=AVTB,setpts=PTS-STARTPTS,format=pix_fmts=yuv420p,fps=24000/1001,scale=1920:1080:flags=bicubic[ref];[main][ref]ssim=eof_action=endall:stats_file='D\\:/Convert/FFMetrics/logs/ssim_logfile-6.txt'" -f null -
Input #0, matroska,webm, from 'G:\Аниме\Онгоинги\!_35_Лето_2024\JamClub\Меч и жезл Вистории\JamClub_Tsue_to_Tsurugi_no_Wistoria_02_1080p_HEVC.mkv':
  Metadata:
    COMPATIBLE_BRANDS: isomiso2avc1mp41
    MAJOR_BRAND     : isom
    MINOR_VERSION   : 512
    ENCODER         : Lavf61.7.100
  Duration: 00:24:08.36, start: -0.001000, bitrate: 1466 kb/s
  Stream #0:0: Video: hevc (Main 10), yuv420p10le(tv, bt709, progressive), 1920x1080 [SAR 1:1 DAR 16:9], 23.98 fps, 23.98 tbr, 1k tbn (default)
      Metadata:
        HANDLER_NAME    : VideoHandler
        VENDOR_ID       : [0][0][0][0]
        ENCODER         : Lavc61.19.100 libx265
        BPS             : 1268281
        DURATION        : 00:24:08.238708333
        NUMBER_OF_FRAMES: 34723
        NUMBER_OF_BYTES : 229596669
        _STATISTICS_WRITING_APP: mkvpropedit v66.0.0 ('Josie') 64-bit
        _STATISTICS_WRITING_DATE_UTC: 2025-04-29 11:22:10
        _STATISTICS_TAGS: BPS DURATION NUMBER_OF_FRAMES NUMBER_OF_BYTES
  Stream #0:1(eng): Audio: aac (LC), 48000 Hz, stereo, fltp (default)
      Metadata:
        HANDLER_NAME    : SoundHandler
        VENDOR_ID       : [0][0][0][0]
        ENCODER         : Lavc61.19.100 aac
        BPS             : 194547
        DURATION        : 00:24:08.323000000
        NUMBER_OF_FRAMES: 67891
        NUMBER_OF_BYTES : 35220956
        _STATISTICS_WRITING_APP: mkvpropedit v66.0.0 ('Josie') 64-bit
        _STATISTICS_WRITING_DATE_UTC: 2025-04-29 11:22:10
        _STATISTICS_TAGS: BPS DURATION NUMBER_OF_FRAMES NUMBER_OF_BYTES
Input #1, mov,mp4,m4a,3gp,3g2,mj2, from 'G:\Аниме\Онгоинги\!_35_Лето_2024\JamClub\Меч и жезл Вистории\JamClub_Tsue_to_Tsurugi_no_Wistoria_02_1080p.mp4':
  Metadata:
    major_brand     : isom
    minor_version   : 512
    compatible_brands: isomiso2avc1mp41
    encoder         : Lavf60.16.100
  Duration: 00:24:08.34, start: 0.000000, bitrate: 4468 kb/s
  Stream #1:0[0x1](und): Video: h264 (High) (avc1 / 0x31637661), yuv420p(progressive), 1920x1080 [SAR 1:1 DAR 16:9], 4270 kb/s, 23.98 fps, 23.98 tbr, 90k tbn (default)
      Metadata:
        handler_name    : VideoHandler
        vendor_id       : [0][0][0][0]
  Stream #1:1[0x2](eng): Audio: aac (LC) (mp4a / 0x6134706D), 48000 Hz, stereo, fltp, 191 kb/s (default)
      Metadata:
        handler_name    : SoundHandler
        vendor_id       : [0][0][0][0]
Stream mapping:
  Stream #0:0 (hevc) -> settb:default
  Stream #1:0 (h264) -> settb:default
  ssim:default -> Stream #0:0 (wrapped_avframe)
  Stream #0:1 -> #0:1 (aac (native) -> pcm_s16le (native))
Output #0, null, to 'pipe:':
  Metadata:
    COMPATIBLE_BRANDS: isomiso2avc1mp41
    MAJOR_BRAND     : isom
    MINOR_VERSION   : 512
    encoder         : Lavf61.7.100
  Stream #0:0: Video: wrapped_avframe, yuv420p10le(tv, bt709, progressive), 1920x1080 [SAR 1:1 DAR 16:9], q=2-31, 200 kb/s, 23.98 fps, 23.98 tbn
      Metadata:
        encoder         : Lavc61.19.100 wrapped_avframe
  Stream #0:1(eng): Audio: pcm_s16le, 48000 Hz, stereo, s16, 1536 kb/s (default)
      Metadata:
        HANDLER_NAME    : SoundHandler
        VENDOR_ID       : [0][0][0][0]
        _STATISTICS_TAGS: BPS DURATION NUMBER_OF_FRAMES NUMBER_OF_BYTES
        BPS             : 194547
        DURATION        : 00:24:08.323000000
        NUMBER_OF_FRAMES: 67891
        NUMBER_OF_BYTES : 35220956
        _STATISTICS_WRITING_APP: mkvpropedit v66.0.0 ('Josie') 64-bit
        _STATISTICS_WRITING_DATE_UTC: 2025-04-29 11:22:10
        encoder         : Lavc61.19.100 pcm_s16le
frame=  115 fps=0.0 q=-0.0 size=N/A time=00:00:04.79 bitrate=N/A speed=9.22x    frame=  276 fps=268 q=-0.0 size=N/A time=00:00:11.51 bitrate=N/A speed=11.2x    frame=  476 fps=306 q=-0.0 size=N/A time=00:00:19.85 bitrate=N/A speed=12.8x    frame=  738 fps=358 q=-0.0 size=N/A time=00:00:30.78 bitrate=N/A speed=14.9x    frame=  995 fps=385 q=-0.0 size=N/A time=00:00:41.49 bitrate=N/A speed=16.1x    frame= 1234 fps=399 q=-0.0 size=N/A time=00:00:51.46 bitrate=N/A speed=16.6x    frame= 1477 fps=408 q=-0.0 size=N/A time=00:01:01.60 bitrate=N/A speed=  17x    frame= 1741 fps=422 q=-0.0 size=N/A time=00:01:12.61 bitrate=N/A speed=17.6x    frame= 1972 fps=425 q=-0.0 size=N/A time=00:01:22.24 bitrate=N/A speed=17.7x    frame= 2174 fps=421 q=-0.0 size=N/A time=00:01:30.67 bitrate=N/A speed=17.6x    frame= 2419 fps=426 q=-0.0 size=N/A time=00:01:40.89 bitrate=N/A speed=17.8x    frame= 2703 fps=436 q=-0.0 size=N/A time=00:01:52.73 bitrate=N/A speed=18.2x    frame= 2988 fps=446 q=-0.0 size=N/A time=00:02:04.62 bitrate=N/A speed=18.6x    frame= 3262 fps=452 q=-0.0 size=N/A time=00:02:16.05 bitrate=N/A speed=18.9x    frame= 3536 fps=457 q=-0.0 size=N/A time=00:02:27.48 bitrate=N/A speed=19.1x    frame= 3814 fps=462 q=-0.0 size=N/A time=00:02:39.07 bitrate=N/A speed=19.3x    frame= 4023 fps=459 q=-0.0 size=N/A time=00:02:47.79 bitrate=N/A speed=19.1x    frame= 4254 fps=458 q=-0.0 size=N/A time=00:02:57.42 bitrate=N/A speed=19.1x    frame= 4486 fps=457 q=-0.0 size=N/A time=00:03:07.10 bitrate=N/A speed=19.1x    frame= 4685 fps=453 q=-0.0 size=N/A time=00:03:15.40 bitrate=N/A speed=18.9x    frame= 4860 fps=448 q=-0.0 size=N/A time=00:03:22.70 bitrate=N/A speed=18.7x    frame= 5067 fps=446 q=-0.0 size=N/A time=00:03:31.33 bitrate=N/A speed=18.6x    frame= 5238 fps=440 q=-0.0 size=N/A time=00:03:38.46 bitrate=N/A speed=18.4x    frame= 5410 fps=436 q=-0.0 size=N/A time=00:03:45.64 bitrate=N/A speed=18.2x    frame= 5606 fps=434 q=-0.0 size=N/A time=00:03:53.81 bitrate=N/A speed=18.1x    frame= 5807 fps=432 q=-0.0 size=N/A time=00:04:02.20 bitrate=N/A speed=  18x    frame= 6031 fps=432 q=-0.0 size=N/A time=00:04:11.54 bitrate=N/A speed=  18x    frame= 6266 fps=433 q=-0.0 size=N/A time=00:04:21.34 bitrate=N/A speed=18.1x    frame= 6521 fps=435 q=-0.0 size=N/A time=00:04:31.98 bitrate=N/A speed=18.1x    frame= 6784 fps=438 q=-0.0 size=N/A time=00:04:42.94 bitrate=N/A speed=18.3x    frame= 7065 fps=441 q=-0.0 size=N/A time=00:04:54.66 bitrate=N/A speed=18.4x    frame= 7316 fps=442 q=-0.0 size=N/A time=00:05:05.13 bitrate=N/A speed=18.5x    frame= 7534 fps=442 q=-0.0 size=N/A time=00:05:14.23 bitrate=N/A speed=18.4x    frame= 7779 fps=443 q=-0.0 size=N/A time=00:05:24.44 bitrate=N/A speed=18.5x    frame= 7990 fps=442 q=-0.0 size=N/A time=00:05:33.24 bitrate=N/A speed=18.4x    frame= 8196 fps=441 q=-0.0 size=N/A time=00:05:41.84 bitrate=N/A speed=18.4x    frame= 8445 fps=442 q=-0.0 size=N/A time=00:05:52.22 bitrate=N/A speed=18.4x    frame= 8666 fps=441 q=-0.0 size=N/A time=00:06:01.44 bitrate=N/A speed=18.4x    frame= 8919 fps=443 q=-0.0 size=N/A time=00:06:11.99 bitrate=N/A speed=18.5x    frame= 9130 fps=442 q=-0.0 size=N/A time=00:06:20.79 bitrate=N/A speed=18.4x    frame= 9362 fps=442 q=-0.0 size=N/A time=00:06:30.47 bitrate=N/A speed=18.4x    frame= 9567 fps=441 q=-0.0 size=N/A time=00:06:39.02 bitrate=N/A speed=18.4x    frame= 9838 fps=443 q=-0.0 size=N/A time=00:06:50.32 bitrate=N/A speed=18.5x    frame=10091 fps=444 q=-0.0 size=N/A time=00:07:00.87 bitrate=N/A speed=18.5x    frame=10339 fps=445 q=-0.0 size=N/A time=00:07:11.22 bitrate=N/A speed=18.6x    frame=10574 fps=445 q=-0.0 size=N/A time=00:07:21.02 bitrate=N/A speed=18.6x    frame=10840 fps=447 q=-0.0 size=N/A time=00:07:32.11 bitrate=N/A speed=18.6x    frame=11108 fps=448 q=-0.0 size=N/A time=00:07:43.29 bitrate=N/A speed=18.7x    frame=11302 fps=447 q=-0.0 size=N/A time=00:07:51.38 bitrate=N/A speed=18.6x    frame=11586 fps=449 q=-0.0 size=N/A time=00:08:03.23 bitrate=N/A speed=18.7x    frame=11877 fps=451 q=-0.0 size=N/A time=00:08:15.36 bitrate=N/A speed=18.8x    frame=12132 fps=452 q=-0.0 size=N/A time=00:08:26.00 bitrate=N/A speed=18.8x    frame=12411 fps=454 q=-0.0 size=N/A time=00:08:37.64 bitrate=N/A speed=18.9x    frame=12672 fps=454 q=-0.0 size=N/A time=00:08:48.52 bitrate=N/A speed=  19x    frame=12928 fps=455 q=-0.0 size=N/A time=00:08:59.20 bitrate=N/A speed=  19x    frame=13186 fps=456 q=-0.0 size=N/A time=00:09:09.96 bitrate=N/A speed=  19x    frame=13424 fps=456 q=-0.0 size=N/A time=00:09:19.89 bitrate=N/A speed=  19x    frame=13659 fps=456 q=-0.0 size=N/A time=00:09:29.69 bitrate=N/A speed=  19x    frame=13921 fps=457 q=-0.0 size=N/A time=00:09:40.62 bitrate=N/A speed=19.1x    frame=14176 fps=458 q=-0.0 size=N/A time=00:09:51.25 bitrate=N/A speed=19.1x    frame=14426 fps=458 q=-0.0 size=N/A time=00:10:01.68 bitrate=N/A speed=19.1x    frame=14684 fps=459 q=-0.0 size=N/A time=00:10:12.44 bitrate=N/A speed=19.1x    frame=14952 fps=460 q=-0.0 size=N/A time=00:10:23.62 bitrate=N/A speed=19.2x    frame=15101 fps=457 q=-0.0 size=N/A time=00:10:29.83 bitrate=N/A speed=19.1x    frame=15356 fps=458 q=-0.0 size=N/A time=00:10:40.47 bitrate=N/A speed=19.1x    frame=15622 fps=459 q=-0.0 size=N/A time=00:10:51.56 bitrate=N/A speed=19.1x    frame=15863 fps=459 q=-0.0 size=N/A time=00:11:01.61 bitrate=N/A speed=19.1x    frame=16113 fps=459 q=-0.0 size=N/A time=00:11:12.04 bitrate=N/A speed=19.1x    frame=16382 fps=460 q=-0.0 size=N/A time=00:11:23.26 bitrate=N/A speed=19.2x    frame=16635 fps=460 q=-0.0 size=N/A time=00:11:33.81 bitrate=N/A speed=19.2x    frame=16871 fps=460 q=-0.0 size=N/A time=00:11:43.66 bitrate=N/A speed=19.2x    frame=17156 fps=462 q=-0.0 size=N/A time=00:11:55.54 bitrate=N/A speed=19.3x    frame=17380 fps=461 q=-0.0 size=N/A time=00:12:04.89 bitrate=N/A speed=19.2x    frame=17594 fps=461 q=-0.0 size=N/A time=00:12:13.81 bitrate=N/A speed=19.2x    frame=17769 fps=459 q=-0.0 size=N/A time=00:12:21.11 bitrate=N/A speed=19.1x    frame=17931 fps=457 q=-0.0 size=N/A time=00:12:27.87 bitrate=N/A speed=19.1x    frame=18207 fps=458 q=-0.0 size=N/A time=00:12:39.38 bitrate=N/A speed=19.1x    frame=18484 fps=459 q=-0.0 size=N/A time=00:12:50.93 bitrate=N/A speed=19.2x    frame=18711 fps=459 q=-0.0 size=N/A time=00:13:00.40 bitrate=N/A speed=19.1x    frame=18961 fps=459 q=-0.0 size=N/A time=00:13:10.83 bitrate=N/A speed=19.2x    frame=19184 fps=459 q=-0.0 size=N/A time=00:13:20.13 bitrate=N/A speed=19.1x    frame=19397 fps=458 q=-0.0 size=N/A time=00:13:29.01 bitrate=N/A speed=19.1x    frame=19661 fps=459 q=-0.0 size=N/A time=00:13:40.02 bitrate=N/A speed=19.1x    frame=19882 fps=459 q=-0.0 size=N/A time=00:13:49.24 bitrate=N/A speed=19.1x    frame=20126 fps=459 q=-0.0 size=N/A time=00:13:59.42 bitrate=N/A speed=19.1x    frame=20349 fps=458 q=-0.0 size=N/A time=00:14:08.72 bitrate=N/A speed=19.1x    frame=20539 fps=458 q=-0.0 size=N/A time=00:14:16.64 bitrate=N/A speed=19.1x    frame=20749 fps=457 q=-0.0 size=N/A time=00:14:25.40 bitrate=N/A speed=19.1x    frame=20980 fps=457 q=-0.0 size=N/A time=00:14:35.04 bitrate=N/A speed=19.1x    frame=21215 fps=457 q=-0.0 size=N/A time=00:14:44.84 bitrate=N/A speed=19.1x    frame=21454 fps=457 q=-0.0 size=N/A time=00:14:54.81 bitrate=N/A speed=19.1x    frame=21702 fps=457 q=-0.0 size=N/A time=00:15:05.15 bitrate=N/A speed=19.1x    frame=21953 fps=457 q=-0.0 size=N/A time=00:15:15.62 bitrate=N/A speed=19.1x    frame=22154 fps=457 q=-0.0 size=N/A time=00:15:24.00 bitrate=N/A speed=19.1x    frame=22370 fps=456 q=-0.0 size=N/A time=00:15:33.01 bitrate=N/A speed=  19x    frame=22560 fps=455 q=-0.0 size=N/A time=00:15:40.94 bitrate=N/A speed=  19x    frame=22730 fps=454 q=-0.0 size=N/A time=00:15:48.03 bitrate=N/A speed=18.9x    frame=22958 fps=454 q=-0.0 size=N/A time=00:15:57.53 bitrate=N/A speed=18.9x    frame=23167 fps=454 q=-0.0 size=N/A time=00:16:06.25 bitrate=N/A speed=18.9x    frame=23431 fps=454 q=-0.0 size=N/A time=00:16:17.26 bitrate=N/A speed=18.9x    frame=23689 fps=455 q=-0.0 size=N/A time=00:16:28.02 bitrate=N/A speed=  19x    frame=23939 fps=455 q=-0.0 size=N/A time=00:16:38.45 bitrate=N/A speed=  19x    frame=24186 fps=455 q=-0.0 size=N/A time=00:16:48.75 bitrate=N/A speed=  19x    frame=24426 fps=455 q=-0.0 size=N/A time=00:16:58.76 bitrate=N/A speed=  19x    frame=24683 fps=455 q=-0.0 size=N/A time=00:17:09.48 bitrate=N/A speed=  19x    frame=24935 fps=456 q=-0.0 size=N/A time=00:17:19.99 bitrate=N/A speed=  19x    frame=25189 fps=456 q=-0.0 size=N/A time=00:17:30.59 bitrate=N/A speed=  19x    frame=25440 fps=456 q=-0.0 size=N/A time=00:17:41.06 bitrate=N/A speed=  19x    frame=25704 fps=457 q=-0.0 size=N/A time=00:17:52.07 bitrate=N/A speed=19.1x    frame=25954 fps=457 q=-0.0 size=N/A time=00:18:02.49 bitrate=N/A speed=19.1x    frame=26202 fps=457 q=-0.0 size=N/A time=00:18:12.84 bitrate=N/A speed=19.1x    frame=26429 fps=457 q=-0.0 size=N/A time=00:18:22.30 bitrate=N/A speed=19.1x    frame=26662 fps=457 q=-0.0 size=N/A time=00:18:32.02 bitrate=N/A speed=19.1x    frame=26913 fps=457 q=-0.0 size=N/A time=00:18:42.49 bitrate=N/A speed=19.1x    frame=27164 fps=458 q=-0.0 size=N/A time=00:18:52.96 bitrate=N/A speed=19.1x    frame=27382 fps=457 q=-0.0 size=N/A time=00:19:02.05 bitrate=N/A speed=19.1x    frame=27606 fps=457 q=-0.0 size=N/A time=00:19:11.40 bitrate=N/A speed=19.1x    frame=27829 fps=457 q=-0.0 size=N/A time=00:19:20.70 bitrate=N/A speed=19.1x    frame=28068 fps=457 q=-0.0 size=N/A time=00:19:30.66 bitrate=N/A speed=19.1x    frame=28299 fps=457 q=-0.0 size=N/A time=00:19:40.30 bitrate=N/A speed=19.1x    frame=28506 fps=456 q=-0.0 size=N/A time=00:19:48.93 bitrate=N/A speed=  19x    frame=28716 fps=456 q=-0.0 size=N/A time=00:19:57.69 bitrate=N/A speed=  19x    frame=28914 fps=455 q=-0.0 size=N/A time=00:20:05.95 bitrate=N/A speed=  19x    frame=29106 fps=455 q=-0.0 size=N/A time=00:20:13.96 bitrate=N/A speed=  19x    frame=29244 fps=453 q=-0.0 size=N/A time=00:20:19.71 bitrate=N/A speed=18.9x    frame=29394 fps=452 q=-0.0 size=N/A time=00:20:25.97 bitrate=N/A speed=18.9x    frame=29592 fps=452 q=-0.0 size=N/A time=00:20:34.23 bitrate=N/A speed=18.8x    frame=29794 fps=451 q=-0.0 size=N/A time=00:20:42.65 bitrate=N/A speed=18.8x    frame=30011 fps=451 q=-0.0 size=N/A time=00:20:51.70 bitrate=N/A speed=18.8x    frame=30266 fps=451 q=-0.0 size=N/A time=00:21:02.34 bitrate=N/A speed=18.8x    frame=30529 fps=452 q=-0.0 size=N/A time=00:21:13.31 bitrate=N/A speed=18.8x    frame=30741 fps=451 q=-0.0 size=N/A time=00:21:22.15 bitrate=N/A speed=18.8x    frame=30994 fps=452 q=-0.0 size=N/A time=00:21:32.70 bitrate=N/A speed=18.8x    frame=31244 fps=452 q=-0.0 size=N/A time=00:21:43.13 bitrate=N/A speed=18.8x    frame=31470 fps=452 q=-0.0 size=N/A time=00:21:52.56 bitrate=N/A speed=18.8x    frame=31732 fps=452 q=-0.0 size=N/A time=00:22:03.48 bitrate=N/A speed=18.9x    frame=31977 fps=452 q=-0.0 size=N/A time=00:22:13.70 bitrate=N/A speed=18.9x    frame=32225 fps=453 q=-0.0 size=N/A time=00:22:24.05 bitrate=N/A speed=18.9x    frame=32466 fps=453 q=-0.0 size=N/A time=00:22:34.10 bitrate=N/A speed=18.9x    frame=32692 fps=453 q=-0.0 size=N/A time=00:22:43.52 bitrate=N/A speed=18.9x    frame=32901 fps=452 q=-0.0 size=N/A time=00:22:52.24 bitrate=N/A speed=18.9x    frame=33135 fps=452 q=-0.0 size=N/A time=00:23:02.00 bitrate=N/A speed=18.9x    frame=33353 fps=452 q=-0.0 size=N/A time=00:23:11.09 bitrate=N/A speed=18.9x    frame=33540 fps=451 q=-0.0 size=N/A time=00:23:18.89 bitrate=N/A speed=18.8x    frame=33777 fps=451 q=-0.0 size=N/A time=00:23:28.78 bitrate=N/A speed=18.8x    frame=34016 fps=451 q=-0.0 size=N/A time=00:23:38.79 bitrate=N/A speed=18.8x    frame=34275 fps=452 q=-0.0 size=N/A time=00:23:49.55 bitrate=N/A speed=18.8x    frame=34508 fps=452 q=-0.0 size=N/A time=00:23:59.27 bitrate=N/A speed=18.8x    [Parsed_ssim_10 @ 00000211a9fbe9c0] SSIM Y:0.993902 (22.148103) U:0.993643 (21.967436) V:0.993405 (21.807581) All:0.993776 (22.059234)
[out#0/null @ 00000211a3404500] video:14920KiB audio:271564KiB subtitle:0KiB other streams:0KiB global headers:0KiB muxing overhead: unknown
frame=34723 fps=452 q=-0.0 Lsize=N/A time=00:24:08.23 bitrate=N/A speed=18.9x    
